<svg xmlns="http://www.w3.org/2000/svg" viewBox="0 0 64 64">
  <defs>
    <linearGradient id="cake" x1="0" y1="0" x2="0" y2="1">
      <stop offset="0%" stop-color="#fff1d2"/>
      <stop offset="100%" stop-color="#d99368"/>
    </linearGradient>
    <linearGradient id="frosting" x1="0" y1="0" x2="0" y2="1">
      <stop offset="0%" stop-color="#ffffff"/>
      <stop offset="100%" stop-color="#ffe1ec"/>
    </linearGradient>
    <radialGradient id="flame" cx="50%" cy="65%" r="50%">
      <stop offset="0%" stop-color="#fffac0"/>
      <stop offset="45%" stop-color="#ffd060"/>
      <stop offset="80%" stop-color="#ff7a30"/>
      <stop offset="100%" stop-color="#ff3b1a" stop-opacity="0"/>
    </radialGradient>
    <radialGradient id="glow" cx="50%" cy="50%" r="50%">
      <stop offset="0%" stop-color="#ffe39e" stop-opacity="0.7"/>
      <stop offset="100%" stop-color="#ffe39e" stop-opacity="0"/>
    </radialGradient>
  </defs>
  <circle cx="32" cy="14" r="13" fill="url(#glow)"/>
  <rect x="6" y="32" width="52" height="22" rx="5" fill="url(#cake)"/>
  <path d="M6 31 Q11 26 16 31 Q21 26 26 31 Q31 26 36 31 Q41 26 46 31 Q51 26 56 31 L58 33 L58 36 L6 36 Z" fill="url(#frosting)"/>
  <rect x="29" y="14" width="6" height="16" rx="1.6" fill="#ff77a0"/>
  <rect x="31.2" y="11" width="1.6" height="3.5" fill="#2a1408"/>
  <path d="M32 4 C 28 9 27 14 32 15 C 37 14 36 9 32 4 Z" fill="url(#flame)"/>
  <circle cx="14" cy="44" r="1.6" fill="#ff7a8e"/>
  <circle cx="22" cy="48" r="1.6" fill="#ffcc55"/>
  <circle cx="30" cy="44" r="1.6" fill="#8fd1ff"/>
  <circle cx="38" cy="48" r="1.6" fill="#c79bff"/>
  <circle cx="46" cy="44" r="1.6" fill="#7fe3a8"/>
  <circle cx="50" cy="48" r="1.4" fill="#ff9ec7"/>
</svg>
